<?xml version="1.0" encoding="utf-8"?>
<!-- Generator: Adobe Illustrator 27.5.0, SVG Export Plug-In . SVG Version: 6.00 Build 0)  -->
<svg version="1.1" xmlns="http://www.w3.org/2000/svg" xmlns:xlink="http://www.w3.org/1999/xlink" x="0px" y="0px"
	 viewBox="0 0 750 500" style="enable-background:new 0 0 750 500;" xml:space="preserve">
<g id="Background_complete">
	<g>
		<g>
			<g>
				<g>
					<g>
						<g>
							<path style="fill:#E0E0E0;" d="M673.734,306.228H492.988c-3.232,0-5.862-2.63-5.862-5.862V37.092
								c0-3.232,2.63-5.862,5.862-5.862h180.746c3.232,0,5.862,2.629,5.862,5.862v263.273
								C679.596,303.598,676.966,306.228,673.734,306.228z M492.988,31.48c-3.095,0-5.612,2.518-5.612,5.612v263.273
								c0,3.095,2.518,5.612,5.612,5.612h180.746c3.095,0,5.612-2.518,5.612-5.612V37.092c0-3.094-2.518-5.612-5.612-5.612H492.988z
								"/>
						</g>
					</g>
					<g>
						<g>
							<path style="fill:#E0E0E0;" d="M465.306,306.228H284.56c-3.232,0-5.862-2.63-5.862-5.862V37.092
								c0-3.232,2.629-5.862,5.862-5.862h180.747c3.232,0,5.862,2.629,5.862,5.862v263.273
								C471.168,303.598,468.538,306.228,465.306,306.228z M284.56,31.48c-3.094,0-5.612,2.518-5.612,5.612v263.273
								c0,3.095,2.518,5.612,5.612,5.612h180.747c3.095,0,5.612-2.518,5.612-5.612V37.092c0-3.094-2.518-5.612-5.612-5.612H284.56z"
								/>
						</g>
					</g>
				</g>
				<g>
					<g>
						<g>
							<path style="fill:#E0E0E0;" d="M257.012,306.228H76.266c-3.232,0-5.862-2.63-5.862-5.862V37.092
								c0-3.232,2.629-5.862,5.862-5.862h180.746c3.232,0,5.862,2.629,5.862,5.862v263.273
								C262.875,303.598,260.245,306.228,257.012,306.228z M76.266,31.48c-3.094,0-5.612,2.518-5.612,5.612v263.273
								c0,3.095,2.518,5.612,5.612,5.612h180.746c3.095,0,5.612-2.518,5.612-5.612V37.092c0-3.094-2.518-5.612-5.612-5.612H76.266z"
								/>
						</g>
					</g>
				</g>
			</g>
			<g>
				<g>
					<rect y="367.297" style="fill:#E0E0E0;" width="750" height="0.12"/>
				</g>
			</g>
		</g>
		<g>
			<rect x="653.626" y="396.673" style="fill:#EBEBEB;" width="55.729" height="0.421"/>
			<rect x="495.044" y="401.239" style="fill:#EBEBEB;" width="14.627" height="0.421"/>
			<rect x="40.645" y="383.876" style="fill:#EBEBEB;" width="72.674" height="0.421"/>
			<rect x="128.299" y="383.876" style="fill:#EBEBEB;" width="10.656" height="0.421"/>
			<rect x="173.586" y="390.98" style="fill:#EBEBEB;" width="157.613" height="0.421"/>
		</g>
	</g>
	<g>
		<rect x="539.559" y="57.489" style="fill:#E6E6E6;" width="102.237" height="131.172"/>
		<rect x="516.685" y="57.489" style="fill:#F0F0F0;" width="120.094" height="131.172"/>
		<rect x="527.758" y="69.14" style="fill:#FFFFFF;" width="97.427" height="107.87"/>
		<rect x="559.761" y="103.606" style="fill:#F0F0F0;" width="35.169" height="38.938"/>
	</g>
	<g>
		<rect x="120.568" y="57.489" style="fill:#E6E6E6;" width="102.237" height="131.172"/>
		<rect x="97.694" y="57.489" style="fill:#F0F0F0;" width="120.094" height="131.172"/>
		<rect x="108.767" y="69.14" style="fill:#FFFFFF;" width="97.427" height="107.87"/>
		<rect x="140.77" y="103.606" style="fill:#F0F0F0;" width="35.169" height="38.938"/>
	</g>
</g>
<g id="Background_simple" style="display:none;">
	<g style="display:inline;">
		<path style="fill:#407BFF;" d="M79.36,163.652c6.903,22.148,23.927,40.74,45.024,48.354
			c35.183,12.698,72.859-4.945,108.285-16.882c93.919-31.648,226.018-11.292,313.47,36.438
			c26.689,18.723,62.371,25.815,91.639,11.906c29.268-13.91,48.098-51.684,36.556-83.001c-9.679-26.262-35.828-41.203-60.507-52.553
			C487.645,49.886,347.077,27.978,209.631,39.629c-23.133,1.961-46.455,4.915-68.217,13.331
			c-21.762,8.416-42.066,22.806-54.157,43.473C75.627,116.312,72.457,141.504,79.36,163.652z"/>
	</g>
	<g style="display:inline;opacity:0.9;">
		<path style="fill:#FFFFFF;" d="M79.36,163.652c6.903,22.148,23.927,40.74,45.024,48.354
			c35.183,12.698,72.859-4.945,108.285-16.882c93.919-31.648,226.018-11.292,313.47,36.438
			c26.689,18.723,62.371,25.815,91.639,11.906c29.268-13.91,48.098-51.684,36.556-83.001c-9.679-26.262-35.828-41.203-60.507-52.553
			C487.645,49.886,347.077,27.978,209.631,39.629c-23.133,1.961-46.455,4.915-68.217,13.331
			c-21.762,8.416-42.066,22.806-54.157,43.473C75.627,116.312,72.457,141.504,79.36,163.652z"/>
	</g>
</g>
<g id="Shadow">
	<g>
		<g>
			<ellipse style="fill:#F5F5F5;" cx="380.041" cy="359.504" rx="259.264" ry="36.279"/>
		</g>
	</g>
</g>
<g id="Table">
	<path style="fill:none;stroke:#263238;stroke-linecap:round;stroke-linejoin:round;stroke-miterlimit:10;" d="M15.545,306.642
		c239.637,0,479.273,0,718.91,0"/>
</g>
<g id="Computer_Tower">
	<g>
		<path style="fill:#263238;" d="M169.169,146.617l45.674,21.062c3.659,1.687,6.007,5.338,6.018,9.368
			c0.077,28.554,0.383,141.114,0.451,165.853c0.008,3.028-1.702,5.795-4.413,7.144l-44.627,22.201L169.169,146.617z"/>
		<path style="opacity:0.3;" d="M169.169,146.617l45.674,21.062c3.659,1.687,6.007,5.338,6.018,9.368
			c0.077,28.554,0.383,141.114,0.451,165.853c0.008,3.028-1.702,5.795-4.413,7.144l-44.627,22.201L169.169,146.617z"/>
		<path style="fill:#263238;" d="M166.426,373.789H96.693c-5.254,0-9.513-4.259-9.513-9.513V156.13c0-5.254,4.259-9.513,9.513-9.513
			h69.732c5.254,0,9.513,4.259,9.513,9.513v208.147C175.938,369.53,171.679,373.789,166.426,373.789z"/>
		<path style="opacity:0.5;" d="M118.542,361.928H87.181V178.883h29.121c7.252,0,13.131,5.879,13.131,13.131v159.023
			C129.433,357.052,124.557,361.928,118.542,361.928z"/>
		<rect x="145.839" y="146.617" style="fill:#407BFF;" width="3.416" height="227.172"/>
		<path style="fill:none;stroke:#407BFF;stroke-miterlimit:10;" d="M169.169,160.992c0,2.326-1.886,4.212-4.212,4.212
			s-4.212-1.886-4.212-4.212s1.886-4.212,4.212-4.212S169.169,158.666,169.169,160.992z"/>
		<circle style="fill:#407BFF;" cx="164.957" cy="160.88" r="2.572"/>
		<g style="opacity:0.3;">
			<g>
				<path d="M183.524,164.175c3.086,1.246,6.171,2.492,9.257,3.739c0.446,0.18,0.891,0.36,1.337,0.54
					c0.379,0.153,0.82-0.167,0.923-0.524c0.122-0.427-0.15-0.772-0.524-0.923c-3.086-1.246-6.171-2.492-9.257-3.739
					c-0.446-0.18-0.891-0.36-1.337-0.54c-0.379-0.153-0.82,0.167-0.923,0.524C182.878,163.679,183.15,164.024,183.524,164.175
					L183.524,164.175z"/>
			</g>
		</g>
		<g style="opacity:0.3;">
			<g>
				<path d="M183.524,167.444c3.086,1.246,6.171,2.492,9.257,3.739c0.446,0.18,0.891,0.36,1.337,0.54
					c0.379,0.153,0.82-0.167,0.923-0.524c0.122-0.427-0.15-0.772-0.524-0.923c-3.086-1.246-6.171-2.492-9.257-3.738
					c-0.446-0.18-0.891-0.36-1.337-0.54c-0.379-0.153-0.82,0.167-0.923,0.524C182.878,166.948,183.15,167.293,183.524,167.444
					L183.524,167.444z"/>
			</g>
		</g>
		<g style="opacity:0.3;">
			<g>
				<path d="M183.524,170.713c3.086,1.246,6.171,2.492,9.257,3.738c0.446,0.18,0.891,0.36,1.337,0.54
					c0.379,0.153,0.82-0.167,0.923-0.524c0.122-0.427-0.15-0.772-0.524-0.923c-3.086-1.246-6.171-2.492-9.257-3.739
					c-0.446-0.18-0.891-0.36-1.337-0.54c-0.379-0.153-0.82,0.167-0.923,0.524C182.878,170.217,183.15,170.562,183.524,170.713
					L183.524,170.713z"/>
			</g>
		</g>
		<g>
			<g>
				<path style="fill:#407BFF;" d="M139.832,147.212c0,11.134,0,22.269,0,33.403c0,16.426,0,32.852,0,49.279
					c0,18.27,0,36.54,0,54.81c0,16.785,0,33.571,0,50.357c0,11.932,0,23.865,0,35.797c0,0.977,0,1.955,0,2.932
					c0,0.483,0.75,0.483,0.75,0c0-11.134,0-22.269,0-33.403c0-16.426,0-32.853,0-49.279c0-18.27,0-36.54,0-54.81
					c0-16.786,0-33.571,0-50.356c0-11.932,0-23.865,0-35.797c0-0.977,0-1.955,0-2.932
					C140.582,146.729,139.832,146.728,139.832,147.212L139.832,147.212z"/>
			</g>
		</g>
	</g>
</g>
<g id="Mouse">
	<g>
		<path style="fill:#263238;" d="M554.909,400.403c0,0-2.1-6.467,0.788-8.549c2.888-2.082,19.338-2.153,27.617-0.765
			c8.279,1.388,15.703,6.316,18.783,12.7c3.081,6.384,5.755,24.463-12.515,25.259C568.308,429.975,557.769,410.499,554.909,400.403z
			"/>
		<path style="fill:#407BFF;" d="M604.154,411.424c-0.529,3.258-2.79,11.061-12.358,12.014
			c-12.131,1.209-21.645-9.438-25.269-15.436c-3.491-5.778-8.982-11.668-11.962-14.617c-0.458,1.181-0.453,2.661-0.3,3.958
			c2.46,2.164,5.605,5.301,7.472,8.596c2.871,5.067,6.531,16.674,19.414,20.797c10.558,3.379,17.44-0.978,20.781-3.618
			C604.178,419.703,604.587,415.336,604.154,411.424z"/>
		<path style="fill:#407BFF;" d="M568.566,390.157c0,0,3.491,2.193,4.841,3.815c1.35,1.622,4.388,4.136,6.976,3.487
			c2.588-0.649,0.975-3.796-4.201-7.113C576.182,390.346,571.99,389.216,568.566,390.157z"/>
	</g>
</g>
<g id="Keyboard">
	<g>
		<path style="fill:#263238;" d="M232.964,461.351c-5.676-0.013-9.909-5.222-8.762-10.78c3.394-16.454,9.936-46.268,12.103-56.113
			c0.418-1.901,2.104-3.249,4.05-3.245l290.272,0.564c2.516,0.005,4.699,1.735,5.279,4.183l12.798,54.036
			c1.358,5.734-3.062,11.205-8.953,11.073c-20.27-0.452-61.063-1.398-73.276-1.941c-16.47-0.732-62.586,1.83-84.18,2.196
			C364.409,461.627,266.174,461.428,232.964,461.351z"/>
		<path style="fill:#407BFF;" d="M508.565,421.843l-0.666-3.521c-0.152-0.803-0.853-1.384-1.669-1.384h-7.958
			c-1.043,0-1.84,0.932-1.678,1.962l0.552,3.522c0.13,0.827,0.842,1.436,1.679,1.436h8.071
			C507.961,423.858,508.763,422.89,508.565,421.843z"/>
		<path style="fill:#407BFF;" d="M495.452,421.896l-0.552-3.522c-0.13-0.827-0.842-1.436-1.679-1.436h-6.905
			c-1.016,0-1.804,0.885-1.688,1.894l0.408,3.522c0.099,0.857,0.825,1.504,1.688,1.504h7.049
			C494.817,423.858,495.614,422.927,495.452,421.896z"/>
		<path style="fill:#407BFF;" d="M495.358,426.758h-7.254c-1.016,0-1.805,0.885-1.688,1.894l0.408,3.522
			c0.099,0.857,0.825,1.504,1.688,1.504h7.398c1.043,0,1.84-0.932,1.679-1.962l-0.552-3.522
			C496.907,427.367,496.195,426.758,495.358,426.758z"/>
		<path style="fill:#407BFF;" d="M525.251,438.22c-0.189-0.757-0.869-1.288-1.649-1.288h-11.19l-0.607,0.115l-0.022-0.115h-12.923
			l-0.575,0.09l-0.014-0.09h-9.056c-1.016,0-1.805,0.885-1.688,1.894l0.441,3.813c0.1,0.865,0.838,1.515,1.709,1.504l34.787-0.442
			c1.096-0.014,1.892-1.047,1.627-2.11L525.251,438.22z"/>
		<path style="fill:#407BFF;" d="M508.835,405.776h6.36c1.105,0,1.916-1.038,1.649-2.11l-0.404-1.62
			c-0.189-0.757-0.869-1.288-1.648-1.288h-6.262c-1.065,0-1.867,0.968-1.67,2.015l0.306,1.619
			C507.318,405.195,508.019,405.776,508.835,405.776z"/>
		<path style="fill:#407BFF;" d="M496.207,405.776h7.551c1.065,0,1.867-0.968,1.67-2.015l-0.306-1.619
			c-0.152-0.802-0.853-1.383-1.669-1.383h-7.499c-1.043,0-1.84,0.931-1.679,1.962l0.254,1.619
			C494.658,405.166,495.37,405.776,496.207,405.776z"/>
		<path style="fill:#407BFF;" d="M520.338,405.776h5.417c1.139,0,1.955-1.099,1.627-2.189l-0.488-1.62
			c-0.216-0.718-0.877-1.209-1.627-1.209h-5.334c-1.105,0-1.916,1.038-1.649,2.11l0.404,1.62
			C518.879,405.245,519.558,405.776,520.338,405.776z"/>
		<path style="fill:#407BFF;" d="M538.475,441.006l-7.449-23.105c-0.216-0.718-0.877-1.209-1.627-1.209h-6.068
			c-1.105,0-1.916,1.038-1.649,2.11l6.292,22.82c0.244,0.886,1.047,1.503,1.966,1.511l6.93,0.061
			C538,443.181,538.801,442.088,538.475,441.006z"/>
		<path style="fill:#407BFF;" d="M492.835,403.814l-0.254-1.62c-0.13-0.827-0.842-1.436-1.678-1.436h-6.322
			c-1.016,0-1.805,0.885-1.688,1.894l0.187,1.62c0.099,0.857,0.825,1.504,1.688,1.504h6.388
			C492.2,405.776,492.997,404.844,492.835,403.814z"/>
		<path style="fill:#407BFF;" d="M447.877,414.286h6.7c1.043,0,1.84-0.931,1.678-1.962l-0.409-2.608
			c-0.129-0.827-0.842-1.436-1.679-1.436h-6.593c-1.016,0-1.805,0.885-1.688,1.894l0.302,2.608
			C446.288,413.639,447.014,414.286,447.877,414.286z"/>
		<path style="fill:#407BFF;" d="M459.627,414.286h7.796c1.065,0,1.867-0.968,1.669-2.015l-0.493-2.608
			c-0.152-0.802-0.853-1.383-1.67-1.383h-7.712c-1.043,0-1.84,0.931-1.679,1.962l0.409,2.608
			C458.078,413.677,458.79,414.286,459.627,414.286z"/>
		<path style="fill:#407BFF;" d="M471.158,405.776h6.36c1.105,0,1.916-1.038,1.648-2.11l-0.404-1.62
			c-0.189-0.757-0.869-1.288-1.648-1.288h-6.262c-1.065,0-1.867,0.968-1.669,2.015l0.306,1.619
			C469.641,405.195,470.342,405.776,471.158,405.776z"/>
		<path style="fill:#407BFF;" d="M480.969,412.175l-0.651-2.608c-0.189-0.757-0.869-1.288-1.648-1.288h-6.661
			c-1.065,0-1.867,0.968-1.669,2.015l0.493,2.608c0.152,0.802,0.853,1.383,1.669,1.383h6.819
			C480.425,414.286,481.236,413.247,480.969,412.175z"/>
		<path style="fill:#407BFF;" d="M458.53,405.776h7.551c1.065,0,1.867-0.968,1.669-2.015l-0.306-1.619
			c-0.152-0.802-0.853-1.383-1.669-1.383h-7.499c-1.043,0-1.84,0.931-1.679,1.962l0.254,1.619
			C456.981,405.166,457.693,405.776,458.53,405.776z"/>
		<path style="fill:#407BFF;" d="M455.158,403.814l-0.254-1.62c-0.13-0.827-0.842-1.436-1.679-1.436h-6.322
			c-1.016,0-1.805,0.885-1.688,1.894l0.188,1.62c0.099,0.857,0.825,1.504,1.688,1.504h6.388
			C454.523,405.776,455.32,404.844,455.158,403.814z"/>
		<path style="fill:#407BFF;" d="M523.881,431.568l-0.879-3.522c-0.189-0.757-0.869-1.288-1.648-1.288h-7.635
			c-1.065,0-1.867,0.968-1.669,2.015l0.666,3.522c0.152,0.802,0.853,1.383,1.669,1.383h7.848
			C523.337,433.678,524.148,432.64,523.881,431.568z"/>
		<path style="fill:#407BFF;" d="M520.955,421.748l-0.878-3.522c-0.189-0.757-0.869-1.288-1.649-1.288h-7.121
			c-1.065,0-1.867,0.968-1.669,2.015l0.666,3.522c0.152,0.802,0.853,1.383,1.67,1.383h7.333
			C520.411,423.858,521.222,422.82,520.955,421.748z"/>
		<g>
			<path style="fill:#407BFF;" d="M485.782,414.286h6.7c1.043,0,1.84-0.931,1.679-1.962l-0.409-2.608
				c-0.13-0.827-0.842-1.436-1.679-1.436h-6.593c-1.016,0-1.805,0.885-1.688,1.894l0.302,2.608
				C484.193,413.639,484.919,414.286,485.782,414.286z"/>
			<path style="fill:#407BFF;" d="M497.532,414.286h7.797c1.065,0,1.867-0.968,1.669-2.015l-0.493-2.608
				c-0.152-0.802-0.853-1.383-1.669-1.383h-7.712c-1.043,0-1.84,0.931-1.679,1.962l0.409,2.608
				C495.983,413.677,496.696,414.286,497.532,414.286z"/>
			<path style="fill:#407BFF;" d="M518.874,412.175l-0.651-2.608c-0.189-0.757-0.869-1.288-1.649-1.288h-6.661
				c-1.065,0-1.867,0.968-1.67,2.015l0.493,2.608c0.152,0.802,0.853,1.383,1.67,1.383h6.819
				C518.33,414.286,519.141,413.247,518.874,412.175z"/>
			<path style="fill:#407BFF;" d="M529.805,412.097l-0.859-2.792c-0.188-0.61-0.751-1.026-1.389-1.026h-5.84
				c-1.105,0-1.916,1.038-1.648,2.11l0.651,2.608c0.189,0.757,0.869,1.288,1.649,1.288h5.81
				C529.317,414.286,530.134,413.187,529.805,412.097z"/>
		</g>
		<path style="fill:#407BFF;" d="M510.977,431.664l-0.666-3.522c-0.152-0.802-0.853-1.383-1.669-1.383h-8.233
			c-1.043,0-1.84,0.931-1.678,1.962l0.552,3.522c0.13,0.827,0.842,1.436,1.679,1.436h8.346
			C510.372,433.678,511.175,432.71,510.977,431.664z"/>
		<path style="fill:#407BFF;" d="M470.61,433.432l-0.666-3.522c-0.152-0.802-0.853-1.383-1.669-1.383h-7.958
			c-1.043,0-1.84,0.931-1.678,1.962l0.552,3.522c0.13,0.827,0.842,1.436,1.679,1.436h8.071
			C470.005,435.447,470.808,434.478,470.61,433.432z"/>
		<path style="fill:#407BFF;" d="M456.6,437.038h-7.254c-1.016,0-1.805,0.885-1.688,1.894l0.408,3.522
			c0.099,0.857,0.825,1.504,1.688,1.504h7.398c1.043,0,1.84-0.932,1.679-1.962l-0.552-3.522
			C458.149,437.647,457.437,437.038,456.6,437.038z"/>
		<path style="fill:#407BFF;" d="M485.123,441.847l-0.879-3.522c-0.189-0.757-0.869-1.288-1.648-1.288h-7.635
			c-1.065,0-1.867,0.968-1.669,2.015l0.666,3.522c0.152,0.802,0.853,1.383,1.669,1.383h7.848
			C484.579,443.958,485.391,442.919,485.123,441.847z"/>
		<path style="fill:#407BFF;" d="M472.219,441.943l-0.666-3.522c-0.152-0.802-0.853-1.383-1.669-1.383h-8.233
			c-1.043,0-1.84,0.931-1.679,1.962l0.552,3.522c0.13,0.827,0.842,1.436,1.679,1.436h8.346
			C471.614,443.958,472.417,442.989,472.219,441.943z"/>
		<path style="fill:#407BFF;" d="M379.142,435.745h-91.56c-0.42,0-0.768,0.327-0.794,0.746l-0.56,9.029
			c-0.029,0.46,0.339,0.848,0.801,0.845l92.259-0.755c0.442-0.004,0.796-0.367,0.789-0.809l-0.139-8.273
			C379.93,436.093,379.576,435.745,379.142,435.745z"/>
		<path style="fill:#407BFF;" d="M392.751,435.984h-9.959c-0.701,0-1.266,0.575-1.255,1.276l0.123,7.325
			c0.012,0.689,0.576,1.239,1.265,1.234l10.096-0.083c0.707-0.006,1.269-0.594,1.244-1.3l-0.26-7.243
			C393.981,436.519,393.426,435.984,392.751,435.984z"/>
		<path style="fill:#407BFF;" d="M283.665,435.745H274.6c-0.76,0-1.397,0.576-1.473,1.332l-0.781,7.768
			c-0.088,0.876,0.604,1.635,1.485,1.628l9.37-0.077c0.777-0.006,1.417-0.613,1.465-1.389l0.477-7.691
			C285.195,436.465,284.518,435.745,283.665,435.745z"/>
		<path style="fill:#407BFF;" d="M408.484,435.984h-11.63c-0.711,0-1.28,0.59-1.254,1.3l0.259,7.209
			c0.024,0.679,0.585,1.215,1.264,1.21l11.916-0.098c0.727-0.006,1.296-0.626,1.241-1.351l-0.545-7.111
			C409.685,436.489,409.139,435.984,408.484,435.984z"/>
		<path style="fill:#407BFF;" d="M270.713,445.178l0.785-7.805c0.088-0.872-0.597-1.628-1.473-1.628h-8.476
			c-0.738,0-1.364,0.544-1.466,1.275l-1.1,7.877c-0.125,0.895,0.574,1.692,1.478,1.685l8.792-0.072
			C270.008,446.504,270.637,445.93,270.713,445.178z"/>
		<path style="fill:#407BFF;" d="M256.953,435.745h-14.905c-0.707,0-1.315,0.5-1.452,1.194l-1.586,8.041
			c-0.181,0.92,0.527,1.774,1.464,1.767l15.386-0.126c0.734-0.006,1.352-0.549,1.454-1.275l1.106-7.915
			C258.544,436.539,257.852,435.745,256.953,435.745z"/>
		<path style="fill:#407BFF;" d="M423.059,435.745h-10.462c-0.731,0-1.307,0.622-1.251,1.351l0.542,7.078
			c0.05,0.658,0.602,1.164,1.261,1.159l10.826-0.089c0.753-0.006,1.331-0.669,1.234-1.416l-0.907-6.989
			C424.222,436.213,423.689,435.745,423.059,435.745z"/>
		<path style="fill:#407BFF;" d="M445.347,443.683l-0.885-6.703c-0.093-0.707-0.696-1.236-1.409-1.236l0,0h-15.86
			c-0.757,0-1.342,0.665-1.244,1.416l0.902,6.955c0.082,0.629,0.62,1.099,1.255,1.093l16.005-0.131
			C444.855,445.072,445.43,444.423,445.347,443.683z"/>
		<path style="fill:#407BFF;" d="M285.424,431.799l0.245-3.96c0.053-0.852-0.624-1.572-1.477-1.572h-8.737
			c-0.76,0-1.397,0.576-1.473,1.332l-0.398,3.96c-0.088,0.872,0.597,1.628,1.473,1.628h8.89
			C284.729,433.188,285.376,432.579,285.424,431.799z"/>
		<path style="fill:#407BFF;" d="M392.446,426.507h-9.797c-0.701,0-1.266,0.575-1.255,1.276l0.074,4.41
			c0.012,0.685,0.57,1.234,1.255,1.234h9.881c0.711,0,1.28-0.59,1.254-1.3l-0.158-4.41
			C393.676,427.042,393.121,426.507,392.446,426.507z"/>
		<path style="fill:#407BFF;" d="M407.831,426.507h-11.283c-0.711,0-1.279,0.59-1.254,1.3l0.158,4.41
			c0.024,0.675,0.578,1.21,1.254,1.21h11.463c0.731,0,1.307-0.622,1.251-1.351l-0.338-4.41
			C409.033,427.012,408.487,426.507,407.831,426.507z"/>
		<path style="fill:#407BFF;" d="M296.295,426.267h-7.542c-0.782,0-1.429,0.608-1.477,1.389l-0.245,3.96
			c-0.053,0.852,0.624,1.572,1.477,1.572h7.721c0.808,0,1.466-0.648,1.48-1.455l0.067-3.96
			C297.789,426.945,297.122,426.267,296.295,426.267z"/>
		<path style="fill:#407BFF;" d="M366.741,427.076c0.007-0.444-0.351-0.809-0.795-0.809h-10.834c-0.439,0-0.796,0.356-0.796,0.796
			v5.329c0,0.439,0.356,0.796,0.796,0.796h11.754c-0.134-0.293-0.215-0.63-0.211-0.843L366.741,427.076z"/>
		<path style="fill:#407BFF;" d="M379.794,427.05c-0.007-0.434-0.361-0.782-0.795-0.782h-9.87c-0.434,0-0.788,0.348-0.796,0.782
			l-0.088,5.321c-0.004,0.208-0.087,0.533-0.219,0.817h11.062c0.445,0,0.803-0.364,0.795-0.809L379.794,427.05z"/>
		<path style="fill:#407BFF;" d="M337.911,426.267h-9.84c-0.439,0-0.796,0.356-0.796,0.796v5.295c0,0.439-0.356,0.796-0.796,0.796
			l0,0c-0.439,0-0.796-0.356-0.796-0.796v-5.295c0-0.439-0.356-0.796-0.796-0.796h-10.946c-0.439,0-0.796,0.356-0.796,0.796v5.295
			c0,0.439-0.356,0.796-0.796,0.796l0,0c-0.439,0-0.796-0.356-0.796-0.796v-5.295c0-0.439-0.356-0.796-0.796-0.796h-10.587
			c-0.434,0-0.788,0.348-0.795,0.782l-0.09,5.329c-0.008,0.445,0.351,0.809,0.795,0.809h37.827c0.439,0,0.796-0.356,0.796-0.796
			v-5.329C338.706,426.624,338.35,426.267,337.911,426.267z"/>
		<path style="fill:#407BFF;" d="M351.93,426.267h-10.837c-0.439,0-0.796,0.356-0.796,0.796v5.329c0,0.439,0.356,0.796,0.796,0.796
			h10.837c0.439,0,0.796-0.356,0.796-0.796v-5.329C352.725,426.624,352.369,426.267,351.93,426.267z"/>
		<path style="fill:#407BFF;" d="M426.661,433.188h16.204c0.749,0,1.331-0.652,1.247-1.396l-0.499-4.41
			c-0.072-0.635-0.608-1.114-1.247-1.114h-16.277c-0.757,0-1.342,0.665-1.244,1.416l0.572,4.41
			C425.498,432.72,426.03,433.188,426.661,433.188z"/>
		<path style="fill:#407BFF;" d="M270.881,426.267h-8.143c-0.738,0-1.364,0.544-1.466,1.275l-0.553,3.96
			c-0.124,0.89,0.567,1.685,1.466,1.685h8.298c0.76,0,1.397-0.576,1.473-1.332l0.398-3.96
			C272.441,427.024,271.757,426.267,270.881,426.267z"/>
		<path style="fill:#407BFF;" d="M259.055,431.912l0.553-3.96c0.124-0.89-0.567-1.685-1.466-1.685h-14.416
			c-0.707,0-1.315,0.5-1.452,1.194l-0.781,3.96c-0.18,0.915,0.52,1.767,1.452,1.767h14.643
			C258.328,433.188,258.953,432.643,259.055,431.912z"/>
		<path style="fill:#407BFF;" d="M410.693,427.618l0.338,4.41c0.05,0.654,0.595,1.159,1.251,1.159h10.244
			c0.757,0,1.342-0.665,1.244-1.416l-0.572-4.41c-0.081-0.625-0.614-1.093-1.244-1.093h-10.01
			C411.213,426.267,410.637,426.889,410.693,427.618z"/>
		<path style="fill:#407BFF;" d="M394.989,417.999l0.158,4.41c0.024,0.675,0.579,1.21,1.254,1.21h11.116
			c0.731,0,1.307-0.622,1.251-1.351l-0.338-4.41c-0.05-0.654-0.595-1.159-1.251-1.159h-10.936
			C395.533,416.699,394.964,417.289,394.989,417.999z"/>
		<path style="fill:#407BFF;" d="M284.72,416.699h-8.408c-0.76,0-1.397,0.576-1.473,1.332l-0.398,3.96
			c-0.088,0.872,0.597,1.628,1.473,1.628h8.561c0.782,0,1.429-0.608,1.477-1.389l0.245-3.96
			C286.25,417.419,285.573,416.699,284.72,416.699z"/>
		<path style="fill:#407BFF;" d="M310.761,416.699h-10.444c-0.434,0-0.788,0.348-0.795,0.782l-0.09,5.329
			c-0.008,0.444,0.351,0.809,0.796,0.809h10.533c0.439,0,0.796-0.356,0.796-0.796v-5.329
			C311.556,417.055,311.2,416.699,310.761,416.699z"/>
		<path style="fill:#407BFF;" d="M289.034,423.619h7.337c0.808,0,1.466-0.647,1.48-1.455l0.067-3.96
			c0.014-0.827-0.653-1.505-1.48-1.505h-7.158c-0.782,0-1.429,0.608-1.477,1.389l-0.246,3.96
			C287.504,422.899,288.181,423.619,289.034,423.619z"/>
		<path style="fill:#407BFF;" d="M420.85,416.699h-9.558c-0.731,0-1.307,0.622-1.251,1.351l0.338,4.41
			c0.05,0.654,0.595,1.159,1.251,1.159h9.793c0.757,0,1.342-0.665,1.245-1.416l-0.572-4.41
			C422.014,417.167,421.481,416.699,420.85,416.699z"/>
		<path style="fill:#407BFF;" d="M263.374,423.619h7.965c0.76,0,1.397-0.576,1.473-1.332l0.398-3.96
			c0.088-0.872-0.597-1.628-1.473-1.628h-7.81c-0.738,0-1.364,0.544-1.466,1.275l-0.553,3.96
			C261.783,422.824,262.475,423.619,263.374,423.619z"/>
		<path style="fill:#407BFF;" d="M366.086,416.699h-10.975c-0.439,0-0.796,0.356-0.796,0.796v5.329c0,0.439,0.356,0.796,0.796,0.796
			h10.887c0.434,0,0.788-0.348,0.795-0.782l0.088-5.329C366.889,417.063,366.531,416.699,366.086,416.699z"/>
		<polygon style="fill:#407BFF;" points="379.638,416.699 368.487,416.699 368.372,423.619 379.754,423.619 		"/>
		<path style="fill:#407BFF;" d="M324.889,416.699h-10.946c-0.439,0-0.796,0.356-0.796,0.796v5.329c0,0.439,0.356,0.796,0.796,0.796
			h10.946c0.439,0,0.796-0.356,0.796-0.796v-5.329C325.684,417.055,325.328,416.699,324.889,416.699z"/>
		<path style="fill:#407BFF;" d="M392.14,416.938h-9.635c-0.701,0-1.267,0.575-1.255,1.276l0.074,4.41
			c0.012,0.685,0.57,1.234,1.255,1.234h9.719c0.711,0,1.28-0.59,1.254-1.3l-0.158-4.41
			C393.37,417.473,392.816,416.938,392.14,416.938z"/>
		<path style="fill:#407BFF;" d="M337.911,416.699h-9.84c-0.439,0-0.796,0.356-0.796,0.796v5.329c0,0.439,0.356,0.796,0.796,0.796
			h9.84c0.439,0,0.796-0.356,0.796-0.796v-5.329C338.706,417.055,338.35,416.699,337.911,416.699z"/>
		<path style="fill:#407BFF;" d="M351.93,416.699h-10.837c-0.439,0-0.796,0.356-0.796,0.796v5.329c0,0.439,0.356,0.796,0.796,0.796
			h10.837c0.439,0,0.796-0.356,0.796-0.796v-5.329C352.725,417.055,352.369,416.699,351.93,416.699z"/>
		<path style="fill:#407BFF;" d="M260.244,422.344l0.553-3.96c0.124-0.89-0.567-1.685-1.466-1.685h-13.926
			c-0.707,0-1.315,0.5-1.452,1.194l-0.781,3.96c-0.18,0.915,0.52,1.767,1.452,1.767h14.154
			C259.517,423.619,260.142,423.075,260.244,422.344z"/>
		<path style="fill:#407BFF;" d="M425.557,423.619h16.346c0.749,0,1.331-0.652,1.247-1.396l-0.499-4.41
			c-0.072-0.634-0.608-1.114-1.247-1.114h-16.419c-0.757,0-1.342,0.665-1.244,1.416l0.572,4.41
			C424.393,423.151,424.926,423.619,425.557,423.619z"/>
		<path style="fill:#407BFF;" d="M423.855,405.666h16.079c0.909,0,1.615-0.791,1.513-1.694l-0.222-1.963
			c-0.087-0.774-0.744-1.357-1.523-1.352l-16.098,0.102c-0.915,0.006-1.618,0.811-1.501,1.719l0.241,1.862
			C422.443,405.098,423.09,405.666,423.855,405.666z"/>
		<path style="fill:#407BFF;" d="M262.647,404.39l0.129-0.921c0.125-0.894-0.573-1.69-1.475-1.685l-13.19,0.083
			c-0.704,0.004-1.307,0.504-1.443,1.194l-0.165,0.837c-0.18,0.915,0.52,1.767,1.452,1.767h13.227
			C261.919,405.666,262.545,405.121,262.647,404.39z"/>
		<path style="fill:#407BFF;" d="M314.095,405.666h10.945c0.439,0,0.796-0.356,0.796-0.796v-2.693c0-0.441-0.359-0.798-0.8-0.796
			l-10.946,0.069c-0.437,0.003-0.79,0.358-0.79,0.796v2.624C313.3,405.31,313.656,405.666,314.095,405.666z"/>
		<path style="fill:#407BFF;" d="M355.264,405.666h11.153c0.434,0,0.788-0.348,0.795-0.782l0.049-2.955
			c0.007-0.446-0.354-0.812-0.8-0.809l-11.202,0.071c-0.437,0.003-0.79,0.358-0.79,0.796v2.884
			C354.469,405.31,354.825,405.666,355.264,405.666z"/>
		<path style="fill:#407BFF;" d="M369.6,405.666h9.227c0.445,0,0.803-0.364,0.795-0.809l-0.051-3.033
			c-0.007-0.436-0.364-0.785-0.8-0.782l-9.127,0.058c-0.432,0.003-0.783,0.35-0.79,0.782l-0.049,2.975
			C368.797,405.301,369.155,405.666,369.6,405.666z"/>
		<path style="fill:#407BFF;" d="M328.223,405.666h9.84c0.439,0,0.796-0.356,0.796-0.796v-2.775c0-0.441-0.359-0.798-0.801-0.796
			l-9.84,0.062c-0.437,0.003-0.791,0.358-0.791,0.796v2.713C327.428,405.31,327.784,405.666,328.223,405.666z"/>
		<path style="fill:#407BFF;" d="M341.245,405.666h10.837c0.439,0,0.796-0.356,0.796-0.796v-2.864c0-0.441-0.359-0.798-0.801-0.796
			l-10.837,0.069c-0.437,0.003-0.79,0.358-0.79,0.795v2.796C340.45,405.31,340.806,405.666,341.245,405.666z"/>
		<path style="fill:#407BFF;" d="M409.12,402.193l0.177,2.314c0.05,0.654,0.595,1.159,1.251,1.159h8.937
			c0.757,0,1.342-0.665,1.244-1.416l-0.307-2.37c-0.082-0.628-0.619-1.097-1.252-1.093l-8.807,0.056
			C409.635,400.847,409.064,401.467,409.12,402.193z"/>
		<path style="fill:#407BFF;" d="M382.462,405.905h9.411c0.711,0,1.28-0.59,1.254-1.3l-0.079-2.196
			c-0.024-0.678-0.583-1.214-1.262-1.21l-9.369,0.059c-0.698,0.004-1.259,0.578-1.247,1.276l0.036,2.137
			C381.219,405.356,381.777,405.905,382.462,405.905z"/>
		<path style="fill:#407BFF;" d="M395.976,405.666h10.459c0.731,0,1.307-0.622,1.251-1.351l-0.175-2.288
			c-0.05-0.657-0.6-1.163-1.259-1.159l-10.364,0.065c-0.707,0.005-1.271,0.593-1.246,1.3l0.08,2.222
			C394.746,405.131,395.301,405.666,395.976,405.666z"/>
		<path style="fill:#407BFF;" d="M290.185,405.666h6.611c0.808,0,1.466-0.648,1.48-1.455l0.019-1.145
			c0.014-0.831-0.659-1.51-1.489-1.505l-6.562,0.042c-0.778,0.005-1.42,0.612-1.468,1.389l-0.068,1.104
			C288.655,404.946,289.332,405.666,290.185,405.666z"/>
		<path style="fill:#407BFF;" d="M277.685,405.666h7.94c0.782,0,1.429-0.608,1.477-1.389l0.067-1.075
			c0.053-0.855-0.629-1.577-1.487-1.572l-7.903,0.05c-0.757,0.005-1.388,0.579-1.463,1.332l-0.103,1.025
			C276.125,404.909,276.81,405.666,277.685,405.666z"/>
		<path style="fill:#407BFF;" d="M265.776,405.666h7.335c0.76,0,1.397-0.576,1.473-1.332l0.1-0.996
			c0.088-0.875-0.602-1.634-1.482-1.628l-7.302,0.046c-0.735,0.005-1.355,0.548-1.457,1.275l-0.133,0.95
			C264.186,404.871,264.877,405.666,265.776,405.666z"/>
		<path style="fill:#407BFF;" d="M300.652,405.666h10.262c0.439,0,0.796-0.356,0.796-0.796v-2.604c0-0.441-0.359-0.798-0.801-0.796
			l-10.219,0.065c-0.432,0.003-0.783,0.35-0.79,0.782l-0.043,2.539C299.849,405.301,300.207,405.666,300.652,405.666z"/>
		<path style="fill:#407BFF;" d="M289.562,414.286h6.953c0.808,0,1.466-0.648,1.48-1.455l0.051-3.046
			c0.014-0.827-0.653-1.505-1.48-1.505h-6.816c-0.782,0-1.429,0.608-1.477,1.388l-0.189,3.046
			C288.032,413.566,288.708,414.286,289.562,414.286z"/>
		<path style="fill:#407BFF;" d="M276.769,414.286h8.233c0.782,0,1.429-0.608,1.477-1.389l0.189-3.046
			c0.053-0.852-0.624-1.572-1.477-1.572h-8.115c-0.76,0-1.397,0.576-1.473,1.332l-0.306,3.046
			C275.209,413.529,275.893,414.286,276.769,414.286z"/>
		<path style="fill:#407BFF;" d="M300.371,414.286h10.39c0.439,0,0.796-0.356,0.796-0.796v-4.415c0-0.439-0.356-0.796-0.796-0.796
			h-10.315c-0.434,0-0.788,0.348-0.795,0.782l-0.074,4.415C299.568,413.921,299.927,414.286,300.371,414.286z"/>
		<path style="fill:#407BFF;" d="M341.093,414.286h10.837c0.439,0,0.796-0.356,0.796-0.796v-4.415c0-0.439-0.356-0.796-0.796-0.796
			h-10.837c-0.439,0-0.796,0.356-0.796,0.796v4.415C340.297,413.929,340.654,414.286,341.093,414.286z"/>
		<path style="fill:#407BFF;" d="M328.071,414.286h9.84c0.439,0,0.796-0.356,0.796-0.796v-4.415c0-0.439-0.356-0.796-0.796-0.796
			h-9.84c-0.439,0-0.796,0.356-0.796,0.796v4.415C327.275,413.929,327.631,414.286,328.071,414.286z"/>
		<path style="fill:#407BFF;" d="M355.112,414.286h11.027c0.434,0,0.788-0.348,0.795-0.782l0.073-4.415
			c0.007-0.444-0.351-0.809-0.795-0.809h-11.1c-0.439,0-0.796,0.356-0.796,0.796v4.415
			C354.316,413.929,354.672,414.286,355.112,414.286z"/>
		<path style="fill:#407BFF;" d="M313.943,414.286h10.946c0.439,0,0.796-0.356,0.796-0.796v-4.415c0-0.439-0.356-0.796-0.796-0.796
			h-10.946c-0.439,0-0.796,0.356-0.796,0.796v4.415C313.147,413.929,313.504,414.286,313.943,414.286z"/>
		<path style="fill:#407BFF;" d="M382.437,414.525h9.556c0.711,0,1.279-0.59,1.254-1.3l-0.125-3.496
			c-0.024-0.675-0.579-1.21-1.254-1.21h-9.49c-0.701,0-1.266,0.575-1.255,1.276l0.059,3.496
			C381.194,413.976,381.752,414.525,382.437,414.525z"/>
		<path style="fill:#407BFF;" d="M369.789,414.286h8.547c0.701,0,1.266-0.575,1.255-1.276l-0.059-3.496
			c-0.012-0.685-0.57-1.234-1.255-1.234h-8.43c-0.685,0-1.243,0.549-1.255,1.234l-0.058,3.496
			C368.523,413.711,369.088,414.286,369.789,414.286z"/>
		<path style="fill:#407BFF;" d="M406.597,408.28h-10.626c-0.711,0-1.28,0.59-1.254,1.3l0.125,3.496
			c0.024,0.675,0.579,1.21,1.254,1.21h10.769c0.731,0,1.307-0.622,1.251-1.351l-0.268-3.496
			C407.798,408.784,407.253,408.28,406.597,408.28z"/>
		<path style="fill:#407BFF;" d="M424.453,414.286h16.488c0.749,0,1.331-0.652,1.247-1.396l-0.395-3.496
			c-0.072-0.634-0.608-1.114-1.247-1.114h-16.546c-0.757,0-1.342,0.665-1.245,1.416l0.454,3.496
			C423.289,413.818,423.822,414.286,424.453,414.286z"/>
		<path style="fill:#407BFF;" d="M273.667,412.953l0.306-3.046c0.088-0.872-0.597-1.628-1.473-1.628h-7.513
			c-0.738,0-1.364,0.544-1.466,1.275l-0.426,3.046c-0.124,0.89,0.567,1.685,1.466,1.685h7.632
			C272.955,414.286,273.591,413.71,273.667,412.953z"/>
		<path style="fill:#407BFF;" d="M246.303,414.286h13.664c0.738,0,1.364-0.544,1.466-1.275l0.425-3.046
			c0.124-0.89-0.567-1.685-1.466-1.685h-13.489c-0.707,0-1.315,0.5-1.452,1.194l-0.601,3.046
			C244.671,413.434,245.371,414.286,246.303,414.286z"/>
		<path style="fill:#407BFF;" d="M409.458,409.63l0.268,3.496c0.05,0.654,0.595,1.159,1.251,1.159h9.341
			c0.757,0,1.342-0.666,1.245-1.416l-0.454-3.496c-0.081-0.625-0.614-1.093-1.245-1.093h-9.155
			C409.979,408.28,409.403,408.901,409.458,409.63z"/>
		<path style="opacity:0.3;" d="M548.745,450.233c-4.708,1.852-13.957,2.805-24.898,2.502c-13.384-0.371-53.991-2.854-97.046-1.568
			c-47.505,1.419-186.582,0.775-193.174,0c-3.582-0.422-6.699-1.874-8.867-3.294c-0.193,0.928-0.382,1.833-0.559,2.692
			c-1.147,5.561,3.088,10.772,8.766,10.786c33.216,0.077,131.442,0.276,149.326-0.027c21.594-0.366,67.71-2.928,84.18-2.196
			c12.213,0.543,53.007,1.488,73.276,1.941C545.56,461.198,549.927,455.879,548.745,450.233z"/>
	</g>
</g>
<g id="Screen">
	<g>
		<ellipse style="fill:#407BFF;" cx="388.824" cy="359.503" rx="126.219" ry="9.679"/>
		<rect x="217.486" y="106.496" style="fill:#407BFF;" width="344.558" height="207.157"/>
		<rect x="225.088" y="115.661" style="fill:#263238;" width="326.034" height="187.07"/>
		<path style="opacity:0.3;" d="M367.636,349.824c0,0,2.056,10.097,21.188,9.235c19.132-0.862,29.532-9,29.532-9
			s-7.857-0.157-17.689-0.197C381.448,349.785,372.221,349.404,367.636,349.824z"/>
		<path style="fill:#407BFF;" d="M388.141,360.425h-2.826c-6.918,0-12.526-5.608-12.526-12.527v-34.245h27.879v34.245
			C400.667,354.817,395.059,360.425,388.141,360.425z"/>
		<polygon style="opacity:0.3;" points="217.486,106.496 225.088,115.661 551.122,115.661 562.043,106.496 		"/>
		<polygon style="opacity:0.3;" points="217.486,313.653 225.088,302.732 551.122,302.732 562.043,313.653 		"/>
		<path style="opacity:0.2;fill:#FFFFFF;" d="M225.088,290.291c0,0,179.472-53.19,189.237-80.216s7.131-94.413,7.131-94.413H225.088
			V290.291z"/>
		<g>
			<path style="fill:#263238;" d="M372.788,352.788c0.792,5.406,7.087,6.788,11.685,7.016c4.734,0.06,10.443,0.271,14.102-3.149
				c1-0.983,1.506-2.389,1.601-3.832c0.133,1.439-0.279,2.978-1.231,4.152C394.197,362.922,372.783,362.635,372.788,352.788
				L372.788,352.788z"/>
		</g>
		<path style="opacity:0.3;fill:#FFFFFF;" d="M270.685,359.112c0,0,91.16-9.289,92.791-6.324c1.631,2.965,12.583,9.49,16.544,10.655
			S292.757,364.995,270.685,359.112z"/>
		<polygon style="opacity:0.2;fill:#FFFFFF;" points="217.486,313.653 225.088,302.732 225.088,115.661 216.704,107.277 		"/>
	</g>
</g>
<g id="Plant">
	<g>
		<g>
			<polygon style="fill:#263238;" points="602.253,309.891 616.547,367.476 669.184,367.476 681.93,309.891 			"/>
		</g>
		<g>
			<g>
				<path style="fill:#407BFF;" d="M654.414,266.088c5.367-6.406,15.74-10.681,27.127-12.738c-0.893,3.154-0.224,6.065,1.702,6.779
					c2.148,0.797,5.029-1.437,6.434-4.989c0.397-1.003,0.617-1.996,0.704-2.933c11.481-0.904,22.963,0.376,30.625,3.937
					c0,0-7.502,6.549-15.999,23.768c-0.261-0.009-0.522-0.017-0.788-0.015c-5.499,0.054-9.931,2.626-9.899,5.744
					c0.023,2.278,2.428,4.213,5.864,5.072c-0.446,1.103-0.892,2.224-1.336,3.389c-8.095,21.217-29.69,5.879-29.495-8.643
					C669.353,285.458,642.388,280.443,654.414,266.088z"/>
				<g>
					<path style="fill:#407BFF;" d="M627.81,238.7c-6.613-6.915-18.769-11.037-31.91-12.557c1.262,3.532,0.723,6.898-1.417,7.852
						c-2.387,1.064-5.844-1.273-7.721-5.221c-0.53-1.114-0.858-2.23-1.029-3.293c-13.159-0.199-26.15,2.092-34.61,6.707
						c0,0,9.058,6.922,20.076,25.937c0.297-0.029,0.594-0.057,0.898-0.074c6.274-0.337,11.525,2.274,11.729,5.831
						c0.149,2.599-2.443,4.979-6.293,6.207c0.594,1.225,1.189,2.471,1.785,3.767c10.867,23.602,34.302,4.552,32.958-11.99
						C612.275,261.866,642.629,254.195,627.81,238.7z"/>
					<path style="opacity:0.3;" d="M627.81,238.7c-6.613-6.915-18.769-11.037-31.91-12.557c1.262,3.532,0.723,6.898-1.417,7.852
						c-2.387,1.064-5.844-1.273-7.721-5.221c-0.53-1.114-0.858-2.23-1.029-3.293c-13.159-0.199-26.15,2.092-34.61,6.707
						c0,0,9.058,6.922,20.076,25.937c0.297-0.029,0.594-0.057,0.898-0.074c6.274-0.337,11.525,2.274,11.729,5.831
						c0.149,2.599-2.443,4.979-6.293,6.207c0.594,1.225,1.189,2.471,1.785,3.767c10.867,23.602,34.302,4.552,32.958-11.99
						C612.275,261.866,642.629,254.195,627.81,238.7z"/>
					<g>
						<g>
							<g>
								<path style="fill:#407BFF;" d="M611.749,233.519c2.809-13.275,14.581-27.119,29.566-38.475
									c1.167,5.253,4.42,9.003,7.786,8.631c3.755-0.415,6.205-5.785,5.474-11.994c-0.206-1.753-0.662-3.361-1.269-4.792
									c16.026-9.744,33.76-16.307,47.715-16.741c0,0-5.809,15.05-4.718,46.382c-0.387,0.178-0.775,0.358-1.161,0.557
									c-7.972,4.115-12.419,11.115-9.932,15.636c1.817,3.303,6.836,4.358,12.516,3.089c0.212,1.935,0.44,3.897,0.704,5.92
									c4.806,36.863-38.669,30.36-49.75,9.053C648.681,250.785,605.457,263.267,611.749,233.519z"/>
								<path style="opacity:0.2;fill:#FFFFFF;" d="M611.749,233.519c2.809-13.275,14.581-27.119,29.566-38.475
									c1.167,5.253,4.42,9.003,7.786,8.631c3.755-0.415,6.205-5.785,5.474-11.994c-0.206-1.753-0.662-3.361-1.269-4.792
									c16.026-9.744,33.76-16.307,47.715-16.741c0,0-5.809,15.05-4.718,46.382c-0.387,0.178-0.775,0.358-1.161,0.557
									c-7.972,4.115-12.419,11.115-9.932,15.636c1.817,3.303,6.836,4.358,12.516,3.089c0.212,1.935,0.44,3.897,0.704,5.92
									c4.806,36.863-38.669,30.36-49.75,9.053C648.681,250.785,605.457,263.267,611.749,233.519z"/>
							</g>
						</g>
					</g>
					<path style="fill:none;stroke:#263238;stroke-linecap:round;stroke-linejoin:round;stroke-miterlimit:10;" d="M643.071,317.62
						c-7.241-38.977,3.576-80.767,28.946-111.828"/>
					<path style="fill:none;stroke:#263238;stroke-linecap:round;stroke-linejoin:round;stroke-miterlimit:10;" d="M589.365,242.713
						c30.429,15.301,47.24,48.153,51.741,60.93c0,0,37.256-26.179,55.219-37.326"/>
				</g>
			</g>
		</g>
		<ellipse style="fill:#263238;" cx="642.869" cy="367.476" rx="26.322" ry="4.767"/>
		<path style="fill:#263238;" d="M681.93,309.891c0,3.19-17.836,5.776-39.838,5.776c-22.002,0-39.838-2.586-39.838-5.776
			s17.836-5.776,39.838-5.776C664.093,304.115,681.93,306.701,681.93,309.891z"/>
		<path style="opacity:0.3;" d="M677.776,309.311c0,1.896-15.745,3.434-35.167,3.434s-35.167-1.537-35.167-3.434
			c0-1.896,15.745-3,35.167-3S677.776,307.415,677.776,309.311z"/>
	</g>
</g>
</svg>
